<?xml version="1.0" encoding="UTF-8"?>
<!DOCTYPE svg PUBLIC "-//W3C//DTD SVG 1.1//EN" "http://www.w3.org/Graphics/SVG/1.1/DTD/svg11.dtd">
<!-- Creator: CorelDRAW -->
<svg xmlns="http://www.w3.org/2000/svg" xml:space="preserve" width="65.6513mm" height="14.7719mm" version="1.1" style="shape-rendering:geometricPrecision; text-rendering:geometricPrecision; image-rendering:optimizeQuality; fill-rule:evenodd; clip-rule:evenodd"
viewBox="0 0 2082.53 468.58"
 xmlns:xlink="http://www.w3.org/1999/xlink"
 xmlns:xodm="http://www.corel.com/coreldraw/odm/2003">
 <defs>
  <style type="text/css">
   <![CDATA[
    .fil0 {fill:#0054A6}
    .fil1 {fill:#00C0F3;fill-rule:nonzero}
   ]]>
  </style>
 </defs>
<symbol id="Meta8-8-0" viewBox="3284.31 3875.85 802.95 793.47">
 <path class="fil0" d="M3523.59 4072.18l71.01 0c39.1,5.37 43.3,203.23 14.1,262.38l16.08 98.93c9.16,65.59 -9.88,98.93 -16.57,54.84l-23.51 -141.94 -48.73 1.08 0 120.44c0,26.88 -4.47,43.01 -10.65,43.01 -9.41,0 -10.4,-46.24 -10.4,-45.16l0 -219.36 82.64 0c9.66,0 9.16,-80.65 0.25,-80.65l-73.97 0c-10.4,-4.3 -12.62,-84.95 -0.25,-93.55z"/>
 <path class="fil0" d="M3655.97 4159.28c-9.9,2.15 -11.88,-83.88 1.24,-83.88l47.74 0c5.46,0 8.92,19.35 8.92,41.94 0,24.74 -3.71,41.94 -9.41,41.94l-48.49 0z"/>
 <path class="fil0" d="M3648.3 4250.67l100.47 0c2.96,0 5.19,4.3 6.92,11.83 1.73,7.53 2.47,17.21 2.47,29.03 0,10.75 -0.99,21.51 -2.72,29.03 -1.73,8.61 -3.96,11.83 -7.17,11.83l-78.93 0 0 88.18 84.37 0c2.97,0 4.94,4.3 6.45,11.83 1.73,8.61 2.47,18.29 2.47,31.19 0,10.75 -0.99,20.43 -2.72,27.96 -1.75,7.52 -4.47,10.76 -7.68,10.76l-93.53 0c-4.2,0 -7.18,-5.38 -8.42,-16.13 -1.24,-10.75 -1.98,-21.51 -1.98,-31.19l0 -204.31z"/>
 <path class="fil0" d="M3756.18 4160.35c-2.96,0 -5.19,-4.3 -6.92,-11.83 -1.73,-8.61 -2.72,-18.28 -2.97,-29.03 0.25,-10.76 1.23,-21.51 3.21,-29.03 1.73,-8.61 3.96,-11.83 7.17,-11.83l85.38 0c3.46,0 5.93,4.3 7.66,11.83 1.73,8.6 2.72,18.28 2.72,29.03 0,10.75 -0.74,21.5 -2.47,29.03 -1.73,8.6 -3.95,11.83 -6.92,11.83l-32.92 0 0.74 301.08c0,13.99 -0.99,25.81 -3.21,33.34 -2.22,8.61 -4.69,11.83 -7.66,11.83 -2.74,0 -4.96,-4.3 -7.18,-11.83 -2.22,-7.52 -3.21,-19.35 -3.21,-33.34l-0.99 -301.08 -32.43 0z"/>
 <path class="fil0" d="M3838.08 4452.84l55.45 -377.44c1.73,-12.9 5.43,-13.98 8.65,-13.98 3.21,0 6.2,4.3 8.91,12.9l52.71 376.37c3.95,68.81 -14.6,79.57 -19.56,27.95l-7.66 -49.46 -68.29 -2.15 -9.9 55.91c-6.45,54.85 -25.74,38.72 -20.3,-30.11zm80.91 -129.04l-17.56 -123.66 -17.81 123.66 35.37 0z"/>
 <path class="fil0" d="M3991.5 4079.7c1.98,-8.61 4.45,-11.83 7.66,-11.83 6.69,0 10.15,17.21 10.15,51.62l0 305.39 65.82 1.08c3.21,0 5.95,3.23 8.67,9.68 2.47,6.45 3.46,16.13 3.46,29.03 0,18.28 -1.24,30.11 -3.21,35.49 -2.22,5.38 -3.97,8.61 -5.46,8.61l-80.17 -1.08c-2.72,0 -4.69,-4.3 -6.67,-11.83 -1.98,-7.52 -3.21,-21.5 -3.21,-41.94l0 -338.72c0,-15.06 0.74,-26.89 2.97,-35.49z"/>
 <path class="fil1" d="M3349.64 4191.53c-32.17,66.67 -53.69,121.51 -61.36,145.17 -2.72,8.87 -3.8,22.62 -3.97,36.42l0 8.2c0.1,8.44 0.49,16.53 1,23.13 0.49,9.67 1.48,22.58 3.22,31.18 2.47,16.13 6.19,23.65 10.89,13.97 8.41,-15.05 43.55,-82.8 53.69,-102.15 40.83,-84.96 95.76,-217.21 100.71,-233.35 2.23,-5.38 -0.25,-21.51 -1.48,-31.19 -0.99,-9.67 -3.46,-26.88 -6.68,-25.81 -17.82,3.23 -63.59,67.75 -96.01,134.42z"/>
 <path class="fil1" d="M3328.61 4066.8c-11.13,23.66 -31.92,75.27 -37.86,100 -5.94,24.73 -6.68,55.91 -5.2,78.49 1.48,20.43 3.71,29.03 7.67,20.43 0.49,0 0.99,-1.07 1.48,-2.16 4.95,-13.97 25.24,-68.81 43.3,-106.45 48.99,-101.08 92.54,-125.81 103.92,-119.36 0.25,0 0.49,0 0.49,0 0.49,-1.08 0.74,-2.16 0.49,-5.38 -0.49,-8.61 -4.45,-37.64 -9.9,-46.24 -40.09,-38.72 -93.29,58.07 -104.42,80.65z"/>
 <path class="fil1" d="M3318.46 3989.37c-17.08,35.48 -16.58,61.3 -16.58,61.3l0.25 16.13c0,0 1.73,21.5 8.66,7.52 0.25,-1.07 0.49,-1.07 0.99,-2.15 5.19,-13.98 7.42,-19.36 9.15,-22.58 0.99,-2.16 1.98,-3.23 2.97,-6.45 2.72,-5.38 52.7,-108.61 97.74,-77.43 0.74,1.07 1.48,1.07 1.73,0 0.74,-2.15 0.74,-6.45 -0.49,-12.9 -1.98,-9.68 -6.19,-25.81 -9.9,-29.03 -6.68,-7.52 -47.01,-33.34 -94.52,65.59z"/>
 <path class="fil1" d="M3344.69 3895.82c-2.23,4.3 -2.97,15.06 0.25,22.59 2.23,5.38 9.15,-1.08 14.1,-4.3 4.95,-3.22 20.29,-10.75 22.52,-9.67 0.74,0 1.73,0 2.47,-2.16 1.48,-3.22 1.98,-9.67 -1.24,-18.28 -5.44,-13.98 -23.01,-9.67 -37.36,10.75 -0.25,0 -0.49,1.07 -0.74,1.07z"/>
 <path class="fil1" d="M3456.04 4136.7c-0.49,1.07 -0.99,3.22 -0.99,3.22 -8.66,41.94 -40.58,149.47 -91.06,254.85 -13.61,27.96 -45.53,82.8 -49,86.03 -0.99,1.07 -1.73,2.15 -2.47,4.3 -3.46,7.52 -5.44,21.5 -3.96,47.31 0.99,18.28 8.91,61.29 17.08,59.14 8.17,-2.15 35.88,-40.86 51.46,-73.13 15.59,-32.25 72.01,-176.35 84.13,-318.29 1.24,-24.74 -2.23,-50.54 -3.46,-61.29 -0.74,-3.23 -1.24,-3.23 -1.73,-2.15z"/>
 <path class="fil1" d="M3460.74 4246.38c-0.25,0 -0.25,1.08 -0.49,2.15 -3.71,36.56 -19.55,188.18 -80.67,315.07 -2.47,5.38 -14.6,29.03 -19.3,34.41 -0.49,1.08 -0.99,1.08 -1.24,2.15 -3.71,7.53 -5.44,26.88 -4.21,37.63 1.48,12.9 5.69,43.01 20.29,26.88 3.21,-3.23 7.92,-11.83 12.62,-21.51 8.41,-17.2 18.06,-40.86 24,-58.07 11.14,-31.19 32.91,-102.16 45.28,-204.31 11.38,-84.95 5.44,-129.04 5.44,-129.04 0,0 -0.99,-7.52 -1.73,-5.37z"/>
 <path class="fil1" d="M3452.57 4442.08c-0.99,2.16 -2.23,7.52 -2.23,7.52 -2.23,15.06 -11.63,72.05 -22.52,112.91 -7.92,31.19 -5.44,52.69 -5.44,52.69 0,0 0.5,4.3 2.97,-1.08 1.74,-3.23 3.96,-10.75 7.67,-25.81 9.15,-39.79 19.3,-86.02 21.53,-133.34 0.25,-13.98 -0.99,-15.05 -1.98,-12.9z"/>
</symbol>
 <g id="Layer_x0020_1">
  <metadata id="CorelCorpID_0Corel-Layer"/>
  <use transform="scale(2.5936 0.59055)" x="0" y="-0.01" width="802.95" height="793.47" xlink:href="#Meta8-8-0"/>
 </g>
</svg>
